<svg width="420" height="220" viewBox="0 0 420 220" fill="none" xmlns="http://www.w3.org/2000/svg">
<g filter="url(#filter0_d_47_14)">
<path d="M60 69C60 61.8203 65.8203 56 73 56H347C354.18 56 360 61.8203 360 69V143C360 150.18 354.18 156 347 156H73C65.8203 156 60 150.18 60 143V69Z" fill="#FF306E"/>
<path d="M60.5 69C60.5 62.0964 66.0964 56.5 73 56.5H347C353.904 56.5 359.5 62.0964 359.5 69V143C359.5 149.904 353.904 155.5 347 155.5H73C66.0964 155.5 60.5 149.904 60.5 143V69Z" stroke="#FF306E"/>
</g>
<defs>
<filter id="filter0_d_47_14" x="0" y="0" width="420" height="220" filterUnits="userSpaceOnUse" color-interpolation-filters="sRGB">
<feFlood flood-opacity="0" result="BackgroundImageFix"/>
<feColorMatrix in="SourceAlpha" type="matrix" values="0 0 0 0 0 0 0 0 0 0 0 0 0 0 0 0 0 0 127 0" result="hardAlpha"/>
<feOffset dy="4"/>
<feGaussianBlur stdDeviation="30"/>
<feComposite in2="hardAlpha" operator="out"/>
<feColorMatrix type="matrix" values="0 0 0 0 1 0 0 0 0 0.188235 0 0 0 0 0.431373 0 0 0 1 0"/>
<feBlend mode="normal" in2="BackgroundImageFix" result="effect1_dropShadow_47_14"/>
<feBlend mode="normal" in="SourceGraphic" in2="effect1_dropShadow_47_14" result="shape"/>
</filter>
</defs>
</svg>
